# xmcd CD database file
#
# Track frame offsets:
#	150
#	15937
#	34839
#	58361
#	72334
#	97549
#	123210
#	147603
#	159381
#	170763
#	193186
#	214084
#	234621
#	251864
#	272190
#
# Disc length: 3956 seconds
#
# Revision: 0
# Processed by: cddbd v1.5.2PL0 Copyright (c) Steve Scherf et al.
# Submitted via: CDex 1.70beta2
#
DISCID=dd0f720f
DTITLE=Joan Bender - Soho Jazz
DYEAR=2005
DGENRE=Jazz
TTITLE0=o Danco Samba
TTITLE1=O Grande Amor
TTITLE2=Body and Soul
TTITLE3=Sunny
TTITLE4=Over the Rainbow
TTITLE5=All Blues
TTITLE6=God Bless the Child
TTITLE7=Frenisi
TTITLE8=Maryann
TTITLE9=Tenderly
TTITLE10=Both Sides Now
TTITLE11=Crazy
TTITLE12=S'Wonderful
TTITLE13=Invitation
TTITLE14=But Beautiful
EXTD=YEAR: 2005
EXTT0=
EXTT1=
EXTT2=
EXTT3=
EXTT4=
EXTT5=
EXTT6=
EXTT7=
EXTT8=
EXTT9=
EXTT10=
EXTT11=
EXTT12=
EXTT13=
EXTT14=
PLAYORDER=
